<svg width="512" height="512" viewBox="0 0 512 512" fill="none" xmlns="http://www.w3.org/2000/svg">
<g clip-path="url(#clip0_132_3)">
<rect width="512" height="512" rx="32" fill="#0B0B1F"/>
<circle cx="157" cy="215" r="45" fill="#E6E6FF"/>
<circle cx="235" cy="395" r="45" fill="#6B4E71"/>
<circle cx="275" cy="140" r="45" fill="#2C1B47"/>
<circle cx="355" cy="255" r="45" fill="#FF61D8"/>
<path d="M-20 530.278L160.278 350" stroke="#6FE7FF" stroke-width="30" stroke-linecap="round"/>
<path d="M350 350L530.278 530.278" stroke="#6FE7FF" stroke-width="30" stroke-linecap="round"/>
<path d="M112 71.5V40H139V44.5H143.5V58H134.5V62.5H139V67H143.5V71.5H130V67H125.5V62.5H121V71.5H112ZM121 58H130V53.5H134.5V44.5H121V58ZM152.5 71.5V67H148V53.5H152.5V49H175V53.5H179.5V67H175V71.5H152.5ZM157 67H170.5V53.5H157V67ZM188.5 71.5V67H184V49H193V67H206.5V49H215.5V71.5H188.5ZM224.5 71.5V67H233.5V44.5H229V40H242.5V67H251.5V71.5H224.5ZM260.5 71.5V67H256V53.5H260.5V49H283V53.5H287.5V62.5H265V67H283V71.5H260.5ZM265 58H278.5V53.5H265V58ZM305.5 71.5V53.5H296.5V49H305.5V40H314.5V49H323.5V53.5H314.5V71.5H305.5ZM341.5 71.5V53.5H332.5V49H341.5V40H350.5V49H359.5V53.5H350.5V71.5H341.5ZM368.5 71.5V67H364V53.5H368.5V49H391V53.5H395.5V62.5H373V67H391V71.5H368.5ZM373 58H386.5V53.5H373V58Z" fill="white"/>
</g>
<defs>
<clipPath id="clip0_132_3">
<rect width="512" height="512" rx="32" fill="white"/>
</clipPath>
</defs>
</svg>
